<?xml version="1.0" encoding="UTF-8" standalone="no"?>
<!-- Created with Inkscape (http://www.inkscape.org/) -->

<svg
   width="99.544411mm"
   height="82.583923mm"
   viewBox="0 0 99.544411 82.583923"
   version="1.1"
   id="svg5"
   xml:space="preserve"
   inkscape:version="1.2.2 (b0a8486541, 2022-12-01)"
   sodipodi:docname="managed-postgres-operator-logo-work.svg"
   inkscape:export-filename="managed-postgres-operator-logo.svg"
   inkscape:export-xdpi="96"
   inkscape:export-ydpi="96"
   xmlns:inkscape="http://www.inkscape.org/namespaces/inkscape"
   xmlns:sodipodi="http://sodipodi.sourceforge.net/DTD/sodipodi-0.dtd"
   xmlns="http://www.w3.org/2000/svg"
   xmlns:svg="http://www.w3.org/2000/svg"><sodipodi:namedview
     id="namedview7"
     pagecolor="#ffffff"
     bordercolor="#000000"
     borderopacity="0.25"
     inkscape:showpageshadow="2"
     inkscape:pageopacity="0.0"
     inkscape:pagecheckerboard="0"
     inkscape:deskcolor="#d1d1d1"
     inkscape:document-units="mm"
     showgrid="false"
     inkscape:zoom="58.215973"
     inkscape:cx="316.57978"
     inkscape:cy="404.91464"
     inkscape:window-width="1920"
     inkscape:window-height="1131"
     inkscape:window-x="0"
     inkscape:window-y="0"
     inkscape:window-maximized="1"
     inkscape:current-layer="layer3"
     showguides="true" /><defs
     id="defs2" /><g
     inkscape:label="Layer 1"
     inkscape:groupmode="layer"
     id="layer1"
     transform="translate(-76.831018,-202.91702)"><path
       id="path3059-1-3"
       style="color:#000000;font-style:normal;font-variant:normal;font-weight:normal;font-stretch:normal;font-size:medium;line-height:normal;font-family:Sans;-inkscape-font-specification:Sans;text-indent:0;text-align:start;text-decoration:none;text-decoration-line:none;letter-spacing:normal;word-spacing:normal;text-transform:none;writing-mode:lr-tb;direction:ltr;baseline-shift:baseline;text-anchor:start;display:inline;overflow:visible;visibility:visible;fill:#ffffff;fill-opacity:1;stroke:#336791;stroke-width:0.3;stroke-miterlimit:4;stroke-dasharray:none;stroke-opacity:1;marker:none;enable-background:accumulate"
       d="m 166.12541,212.39701 c -0.60548,-0.008 -1.23807,0.19742 -1.77251,0.62374 -0.1623,0.12856 -0.38243,0.29633 -0.52813,0.42168 -0.63814,0.54902 -1.0323,1.09135 -1.56941,1.66088 -1.17216,1.19063 -2.1408,2.18401 -3.20446,2.90008 -0.4609,0.26833 -1.13591,0.17517 -1.44229,0.15709 l -0.90433,0.64493 c -0.4655,-0.48812 -0.94687,-0.95971 -1.44178,-1.41542 v 9.73946 l 0.0357,-0.032 c 1.38667,2.24781 2.43718,4.75844 3.06235,7.48016 0.61773,2.68944 0.77252,5.37396 0.51779,7.96851 l -4.6054,-1.32654 a 23.760454,29.486509 0 0 1 -2.14302,6.21513 l 5.44876,0.92139 c -1.81137,5.08901 -5.27725,9.49801 -9.90844,12.44833 l -1.85312,-4.47569 a 23.760454,29.486509 0 0 1 -5.33714,3.76773 l 1.81126,3.27266 c -0.78505,0.26316 -1.59199,0.48798 -2.41742,0.67541 -4.62609,1.05034 -9.23756,0.73189 -13.41314,-0.69091 l 0.85215,-1.54099 a 23.760454,29.486509 0 0 1 -5.20847,-1.95337 13.984679,15.067079 0 0 1 -6.6151,4.52531 c 1.02151,0.79068 2.08993,1.51864 3.20032,2.17661 l -0.4315,1.03611 c 0.15555,0.40229 0.3273,0.9468 0.21136,1.3441 -0.46136,1.19636 -1.25197,2.45916 -2.15181,3.86695 -0.4357,0.65038 -0.88167,1.15477 -1.27485,1.89911 -0.094,0.17805 -0.21346,0.45205 -0.30438,0.64027 -0.61088,1.30705 -0.16263,2.81216 1.01079,3.37706 1.18085,0.56847 2.6461,-0.0307 3.28042,-1.34049 10e-4,-10e-4 0.005,-0.003 0.005,-0.005 6.4e-4,-10e-4 -6.2e-4,-0.005 0,-0.005 0.0903,-0.18573 0.21842,-0.42949 0.29456,-0.60409 0.33675,-0.77152 0.44892,-1.43255 0.68574,-2.17868 0.62889,-1.57974 0.97445,-3.2372 1.8402,-4.27003 0.23706,-0.28285 0.62353,-0.39194 1.02423,-0.49919 l 0.53847,-0.97513 c 5.51568,2.11711 11.68937,2.68554 17.85679,1.28519 1.40693,-0.31942 2.76522,-0.73321 4.0783,-1.22938 0.15131,0.26837 0.43258,0.78426 0.50798,0.91415 0.40722,0.13251 0.85174,0.20079 1.21388,0.73639 0.64773,1.10663 1.09075,2.4159 1.63039,3.99717 0.23685,0.74618 0.35362,1.40723 0.6904,2.17868 0.0768,0.17576 0.20405,0.42367 0.29455,0.60978 0.63301,1.31395 2.10352,1.91538 3.28611,1.34566 1.17332,-0.56523 1.62203,-2.0707 1.01079,-3.37757 -0.0907,-0.18828 -0.21593,-0.46162 -0.31006,-0.63976 -0.39321,-0.74429 -0.8386,-1.2441 -1.27434,-1.89446 -0.8999,-1.40773 -1.64648,-2.57706 -2.10788,-3.77341 -0.19292,-0.617 0.0325,-1.00102 0.18293,-1.40198 -0.09,-0.10301 -0.2828,-0.68559 -0.39636,-0.95963 6.57521,-3.88233 11.42497,-10.07961 13.70253,-17.23719 0.30756,0.0482 0.84231,0.14288 1.01596,0.17776 0.35748,-0.23576 0.68616,-0.54375 1.33066,-0.49299 1.26902,0.18363 2.57172,0.65504 4.14445,1.21905 0.73104,0.28004 1.31953,0.60503 2.13269,0.82269 0.1718,0.0459 0.4185,0.0892 0.61495,0.13229 0.0161,0.005 0.0295,0.0118 0.0455,0.016 0.0121,0.003 0.0256,0.003 0.0357,0.004 1.40945,0.3034 2.77806,-0.46775 3.06751,-1.73684 0.28942,-1.2688 -0.6102,-2.55681 -2.01124,-2.89492 -0.20383,-0.0464 -0.49251,-0.12533 -0.6904,-0.16278 -0.82712,-0.1567 -1.50035,-0.11762 -2.28048,-0.18241 -1.66173,-0.17412 -3.03825,-0.31609 -4.26124,-0.70125 -0.49866,-0.19337 -0.85327,-0.78673 -1.02578,-1.03095 l -0.96014,-0.27905 c 0.49769,-3.60055 0.36356,-7.34766 -0.49765,-11.097 -0.86923,-3.78422 -2.40529,-7.24559 -4.45399,-10.29498 0.24622,-0.2238 0.71102,-0.6354 0.84284,-0.75654 0.0385,-0.42647 0.005,-0.87393 0.447,-1.34617 0.93471,-0.87772 2.11365,-1.60558 3.53519,-2.48357 0.67475,-0.39696 1.29841,-0.65285 1.97559,-1.1529 0.15323,-0.11307 0.3621,-0.29179 0.52296,-0.42116 1.14015,-0.90954 1.40253,-2.47854 0.58395,-3.5047 -0.43488,-0.54515 -1.0863,-0.82814 -1.7725,-0.83716 z m -63.57545,0.046 c -0.68103,0.0128 -1.3265,0.29798 -1.75803,0.83923 -0.818326,1.02638 -0.55645,2.59497 0.58394,3.50418 0.0117,0.009 0.024,0.0161 0.0357,0.0253 0.15671,0.12704 0.34894,0.2895 0.493,0.39584 0.67719,0.5 1.29566,0.75597 1.97042,1.1529 1.42155,0.8779 2.5999,1.6059 3.53467,2.48357 0.36503,0.38911 0.4289,1.07494 0.47749,1.37149 l 0.76171,0.68058 c -2.8832,4.33904 -4.6694,9.4 -5.07566,14.72262 a 13.984679,15.067079 0 0 1 4.28759,-2.16886 23.760454,29.486509 0 0 1 -0.10749,-2.651 23.760454,29.486509 0 0 1 3.12178,-14.58878 c -0.36919,0.0582 -0.75367,0.11646 -1.23559,-0.16433 -1.06368,-0.71601 -2.03273,-1.70436 -3.20497,-2.89491 -0.53713,-0.56949 -0.92607,-1.11194 -1.56424,-1.66088 -0.14493,-0.12461 -0.36603,-0.29289 -0.52814,-0.42117 -0.49891,-0.39778 -1.08741,-0.6053 -1.65571,-0.62476 -0.0457,-0.002 -0.091,-0.002 -0.13643,-0.001 z m -4.499976,33.85995 c -0.17702,0.0188 -0.34483,0.0381 -0.52865,0.0574 -0.78016,0.0647 -1.45341,0.0262 -2.28048,0.18294 -0.18204,0.0345 -0.43541,0.10016 -0.63459,0.14676 -0.007,0.001 -0.0137,0.005 -0.0207,0.005 -0.0109,0.003 -0.0252,0.007 -0.0357,0.009 -1.40095,0.33849 -2.30098,1.6262 -2.01125,2.89491 0.28981,1.26901 1.65867,2.04117 3.06803,1.73737 0.0102,-0.003 0.0245,-0.003 0.0351,-0.005 0.016,-0.005 0.0302,-0.0119 0.046,-0.016 0.19646,-0.0432 0.44257,-0.0913 0.61444,-0.13746 0.51861,-0.13889 0.94645,-0.31974 1.37769,-0.50488 a 13.984679,15.067079 0 0 1 -0.0419,-0.74311 13.984679,15.067079 0 0 1 0.41186,-3.62665 z"
       inkscape:export-filename="managed-postgres-operator-logo-invert.png"
       inkscape:export-xdpi="96"
       inkscape:export-ydpi="96" /><path
       id="path1856-6"
       style="fill:#ffffff;fill-opacity:1;stroke:#336791;stroke-width:0.3;stroke-dasharray:none;stroke-opacity:1"
       d="m 128.79797,203.06735 c -27.90317,0 -26.79889,-0.0729 -30.837386,2.03554 -2.74625,1.43377 -5.63098,4.32372 -7.07967,7.09207 -1.87357,3.58025 -2.00738,4.65529 -2.01228,16.1494 l -0.005,10.21488 h 0.68316 c 1.0445,0 4.08674,-0.84719 5.52007,-1.53738 0.70504,-0.33949 1.75012,-1.05918 2.32234,-1.59886 0.87635,-0.82648 1.01025,-0.87972 0.8506,-0.339 -0.59921,2.02945 -3.70115,4.17101 -7.16391,4.94595 -2.28579,0.51156 -7.31746,0.45058 -9.44955,-0.11472 -0.94597,-0.25081 -2.38858,-0.79502 -3.20601,-1.20923 -1.64217,-0.83216 -1.86054,-0.63723 -0.75602,0.67541 1.58479,1.88342 6.21795,3.63832 9.63352,3.64732 l 1.5658,0.004 v 10.11411 c 0,11.02198 0.19141,12.92901 1.66604,16.61501 2.28955,5.72297 6.38439,10.13828 12.012186,12.95166 2.08533,1.04247 5.72227,2.16967 7.94525,2.4629 v 5.1e-4 c 3.26681,0.43092 7.1656,0.0512 10.6624,-1.03817 1.9475,-0.6067 2.3408,-0.90232 1.71462,-1.28933 -0.16404,-0.10138 -0.29817,-0.44486 -0.29817,-0.76326 0,-0.5338 -0.22849,-0.5793 -2.93471,-0.5793 -7.15882,0 -13.49893,-3.35937 -17.59737,-9.32449 -6.254746,-9.10351 -5.701416,-21.48075 1.34927,-30.17594 1.33774,-1.64975 4.31754,-4.34185 4.80591,-4.34185 0.11825,0 0.51517,1.15962 0.8816,2.5771 0.74928,2.8984 2.22195,6.47544 3.70365,8.9948 1.28651,2.18751 6.18311,7.08899 8.34988,8.35815 11.76839,6.89312 25.97754,0.13583 30.93764,-14.71228 1.72587,-5.16625 1.82056,-6.40887 1.82056,-23.89777 v -15.91723 z m -32.241956,18.71307 a 1.8637582,2.7425365 65.7485 0 1 1.79421,0.91105 1.8637582,2.7425365 65.7485 0 1 -1.73271,2.82619 1.8637582,2.7425365 65.7485 0 1 -3.2675,-0.57103 1.8637582,2.7425365 65.7485 0 1 1.73271,-2.82618 1.8637582,2.7425365 65.7485 0 1 1.47329,-0.34003 z" /></g></svg>
