<?xml version="1.0" encoding="UTF-8" standalone="no"?>
<!-- Created with Inkscape (http://www.inkscape.org/) -->

<svg
   width="99.265587mm"
   height="82.283745mm"
   viewBox="0 0 99.265587 82.283745"
   version="1.1"
   id="svg5"
   xml:space="preserve"
   inkscape:version="1.2.2 (b0a8486541, 2022-12-01)"
   sodipodi:docname="managed-postgres-operator-logo-work.svg"
   inkscape:export-filename="managed-postgres-operator-logo.svg"
   inkscape:export-xdpi="96"
   inkscape:export-ydpi="96"
   xmlns:inkscape="http://www.inkscape.org/namespaces/inkscape"
   xmlns:sodipodi="http://sodipodi.sourceforge.net/DTD/sodipodi-0.dtd"
   xmlns="http://www.w3.org/2000/svg"
   xmlns:svg="http://www.w3.org/2000/svg"><sodipodi:namedview
     id="namedview7"
     pagecolor="#ffffff"
     bordercolor="#000000"
     borderopacity="0.25"
     inkscape:showpageshadow="2"
     inkscape:pageopacity="0.0"
     inkscape:pagecheckerboard="0"
     inkscape:deskcolor="#d1d1d1"
     inkscape:document-units="mm"
     showgrid="false"
     inkscape:zoom="1.4348192"
     inkscape:cx="390.29309"
     inkscape:cy="461.73066"
     inkscape:window-width="1920"
     inkscape:window-height="1131"
     inkscape:window-x="0"
     inkscape:window-y="0"
     inkscape:window-maximized="1"
     inkscape:current-layer="layer3"
     showguides="true" /><defs
     id="defs2" /><g
     inkscape:groupmode="layer"
     id="layer3"
     inkscape:label="Layer 2"
     transform="translate(-66.055124,-86.031652)"><path
       id="path3059-1"
       style="color:#000000;font-style:normal;font-variant:normal;font-weight:normal;font-stretch:normal;font-size:medium;line-height:normal;font-family:Sans;-inkscape-font-specification:Sans;text-indent:0;text-align:start;text-decoration:none;text-decoration-line:none;letter-spacing:normal;word-spacing:normal;text-transform:none;writing-mode:lr-tb;direction:ltr;baseline-shift:baseline;text-anchor:start;display:inline;overflow:visible;visibility:visible;fill:#336791;fill-opacity:1;stroke:#ffffff;stroke-width:0.0406304;stroke-miterlimit:4;stroke-dasharray:none;stroke-opacity:1;marker:none;enable-background:accumulate"
       d="m 155.20035,95.361621 c -0.60548,-0.008 -1.23807,0.197412 -1.77251,0.623735 -0.1623,0.12856 -0.38243,0.296329 -0.52813,0.421679 -0.63814,0.54902 -1.0323,1.091351 -1.56941,1.660881 -1.17216,1.190627 -2.1408,2.184014 -3.20446,2.900084 -0.4609,0.26833 -1.13591,0.17517 -1.44229,0.15709 l -0.90433,0.64493 c -0.4655,-0.48812 -0.94687,-0.95971 -1.44178,-1.41542 v 9.73946 l 0.0357,-0.032 c 1.38667,2.24781 2.43718,4.75844 3.06235,7.48016 0.61773,2.68944 0.77252,5.37396 0.51779,7.96851 l -4.6054,-1.32654 a 23.760454,29.486509 0 0 1 -2.14302,6.21513 l 5.44876,0.92139 c -1.81137,5.08901 -5.27725,9.49801 -9.90844,12.44833 l -1.85312,-4.47569 a 23.760454,29.486509 0 0 1 -5.33714,3.76773 l 1.81126,3.27266 c -0.78505,0.26316 -1.59199,0.48798 -2.41742,0.67541 -4.62609,1.05034 -9.23756,0.73189 -13.41314,-0.69091 l 0.85215,-1.54099 a 23.760454,29.486509 0 0 1 -5.20847,-1.95337 13.984679,15.067079 0 0 1 -6.6151,4.52531 c 1.02151,0.79068 2.08993,1.51864 3.20032,2.17661 l -0.4315,1.03611 c 0.15555,0.40229 0.3273,0.9468 0.21136,1.3441 -0.46136,1.19636 -1.25197,2.45916 -2.15181,3.86695 -0.4357,0.65038 -0.88167,1.15477 -1.27485,1.89911 -0.094,0.17805 -0.21346,0.45205 -0.30438,0.64027 -0.61088,1.30705 -0.16263,2.81216 1.01079,3.37706 1.18085,0.56847 2.6461,-0.0307 3.28042,-1.34049 10e-4,-10e-4 0.005,-0.003 0.005,-0.005 6.4e-4,-0.001 -6.2e-4,-0.005 0,-0.005 0.0903,-0.18573 0.21842,-0.42949 0.29456,-0.60409 0.33675,-0.77152 0.44892,-1.43255 0.68574,-2.17868 0.62889,-1.57974 0.97445,-3.2372 1.8402,-4.27003 0.23706,-0.28285 0.62353,-0.39194 1.02423,-0.49919 l 0.53847,-0.97513 c 5.51568,2.11711 11.68937,2.68554 17.85679,1.28519 1.40693,-0.31942 2.76522,-0.73321 4.0783,-1.22938 0.15131,0.26837 0.43258,0.78426 0.50798,0.91415 0.40722,0.13251 0.85174,0.20079 1.21388,0.73639 0.64773,1.10663 1.09075,2.4159 1.63039,3.99717 0.23685,0.74618 0.35362,1.40723 0.6904,2.17868 0.0768,0.17576 0.20405,0.42367 0.29455,0.60978 0.63301,1.31395 2.10352,1.91538 3.28611,1.34566 1.17332,-0.56523 1.62203,-2.0707 1.01079,-3.37757 -0.0907,-0.18828 -0.21593,-0.46162 -0.31006,-0.63976 -0.39321,-0.74429 -0.8386,-1.2441 -1.27434,-1.89446 -0.8999,-1.40773 -1.64648,-2.57706 -2.10788,-3.77341 -0.19292,-0.617 0.0325,-1.00102 0.18293,-1.40198 -0.09,-0.10301 -0.2828,-0.68559 -0.39636,-0.95963 6.57521,-3.88233 11.42497,-10.07961 13.70253,-17.23719 0.30756,0.0482 0.84231,0.14288 1.01596,0.17776 0.35748,-0.23576 0.68616,-0.54375 1.33066,-0.49299 1.26902,0.18363 2.57172,0.65504 4.14445,1.21905 0.73104,0.28004 1.31953,0.60503 2.13269,0.82269 0.1718,0.0459 0.4185,0.0892 0.61495,0.13229 0.0161,0.005 0.0295,0.0118 0.0455,0.016 0.0121,0.003 0.0256,0.003 0.0357,0.004 1.40945,0.3034 2.77806,-0.46775 3.06751,-1.73684 0.28942,-1.2688 -0.6102,-2.55681 -2.01124,-2.89492 -0.20383,-0.0464 -0.49251,-0.12533 -0.6904,-0.16278 -0.82712,-0.1567 -1.50035,-0.11762 -2.28048,-0.18241 -1.66173,-0.17412 -3.03825,-0.31609 -4.26124,-0.70125 -0.49866,-0.19337 -0.85327,-0.78673 -1.02578,-1.03095 l -0.96014,-0.27905 c 0.49769,-3.60055 0.36356,-7.34766 -0.49765,-11.097 -0.86923,-3.78422 -2.40529,-7.24559 -4.45399,-10.29498 0.24622,-0.2238 0.71102,-0.6354 0.84284,-0.75654 0.0385,-0.42647 0.005,-0.87393 0.447,-1.34617 0.93471,-0.87772 2.11365,-1.60558 3.53519,-2.48357 0.67475,-0.39696 1.29841,-0.65285 1.97559,-1.1529 0.15323,-0.11307 0.3621,-0.291795 0.52296,-0.421165 1.14015,-0.909537 1.40253,-2.478539 0.58395,-3.504696 -0.43488,-0.54515 -1.0863,-0.828139 -1.7725,-0.837158 z m -63.575452,0.04599 c -0.681025,0.01285 -1.326495,0.297972 -1.758032,0.839225 -0.818332,1.026377 -0.556447,2.594972 0.583944,3.504179 0.01168,0.009 0.02398,0.01612 0.03566,0.02532 0.156708,0.12704 0.34894,0.289505 0.492994,0.395845 0.677198,0.5 1.295665,0.75597 1.970422,1.1529 1.421552,0.8779 2.599905,1.6059 3.534668,2.48357 0.36503,0.38911 0.4289,1.07494 0.47749,1.37149 l 0.761711,0.68058 c -2.883197,4.33904 -4.669397,9.4 -5.075659,14.72262 a 13.984679,15.067079 0 0 1 4.287593,-2.16886 23.760454,29.486509 0 0 1 -0.107487,-2.651 23.760454,29.486509 0 0 1 3.121774,-14.58878 c -0.36919,0.0582 -0.753666,0.11646 -1.235584,-0.16433 -1.063687,-0.71601 -2.03273,-1.704359 -3.204972,-2.894916 -0.537131,-0.569487 -0.926074,-1.111933 -1.564246,-1.66088 -0.144922,-0.12461 -0.366025,-0.292883 -0.528133,-0.421163 -0.498912,-0.39778 -1.087413,-0.605308 -1.655713,-0.624768 -0.04567,-0.0016 -0.09102,-0.0019 -0.136426,-0.001 z m -4.499983,33.859949 c -0.177018,0.0188 -0.344831,0.0381 -0.52865,0.0574 -0.780158,0.0647 -1.453406,0.0262 -2.280481,0.18294 -0.182036,0.0345 -0.435409,0.10016 -0.634587,0.14676 -0.0069,0.001 -0.01373,0.005 -0.02067,0.005 -0.01086,0.003 -0.02521,0.007 -0.03566,0.009 -1.400951,0.33849 -2.30098,1.6262 -2.011247,2.89491 0.289803,1.26901 1.658671,2.04117 3.06803,1.73737 0.01017,-0.003 0.02451,-0.003 0.03514,-0.005 0.01603,-0.005 0.0302,-0.0119 0.04599,-0.016 0.196454,-0.0432 0.442573,-0.0913 0.614433,-0.13746 0.518618,-0.13889 0.946459,-0.31974 1.377693,-0.50488 a 13.984679,15.067079 0 0 1 -0.04186,-0.74311 13.984679,15.067079 0 0 1 0.411862,-3.62665 z"
       inkscape:export-filename="managed-postgres-operator-logo.svg"
       inkscape:export-xdpi="96"
       inkscape:export-ydpi="96" /></g><g
     inkscape:label="Layer 1"
     inkscape:groupmode="layer"
     id="layer1"
     transform="translate(-66.055124,-86.031652)"><path
       id="path1856"
       style="fill:#336791;fill-opacity:1;stroke-width:0.29825"
       d="m 117.87291,86.031958 c -27.903167,0 -26.798889,-0.0729 -30.837396,2.035535 -2.746247,1.433771 -5.630974,4.323729 -7.079671,7.092073 -1.873565,3.580247 -2.00738,4.655288 -2.01228,16.149404 l -0.0047,10.21488 h 0.683162 c 1.044498,0 4.08674,-0.84719 5.520077,-1.53738 0.705041,-0.33949 1.750118,-1.05918 2.322339,-1.59886 0.876347,-0.82648 1.010243,-0.87972 0.850594,-0.339 -0.599206,2.02945 -3.701142,4.17101 -7.163904,4.94595 -2.285794,0.51156 -7.317462,0.45058 -9.449552,-0.11472 -0.94597,-0.25081 -2.388576,-0.79502 -3.206006,-1.20923 -1.642176,-0.83216 -1.860541,-0.63723 -0.756026,0.67541 1.584791,1.88342 6.217954,3.63832 9.63352,3.64732 l 1.565796,0.004 v 10.11411 c 0,11.02198 0.191416,12.92901 1.666048,16.61501 2.289546,5.72297 6.384382,10.13828 12.012187,12.95166 2.085333,1.04247 5.722269,2.16967 7.945251,2.4629 v 5.1e-4 c 3.266811,0.43092 7.165601,0.0512 10.662401,-1.03817 1.9475,-0.6067 2.3408,-0.90232 1.71462,-1.28933 -0.16404,-0.10138 -0.29817,-0.44486 -0.29817,-0.76326 0,-0.5338 -0.22849,-0.5793 -2.93471,-0.5793 -7.15882,0 -13.498927,-3.35937 -17.597372,-9.32449 -6.254746,-9.10351 -5.701417,-21.48075 1.349272,-30.17594 1.337734,-1.64975 4.317543,-4.34185 4.805908,-4.34185 0.118249,0 0.515172,1.15962 0.8816,2.5771 0.749279,2.8984 2.221952,6.47544 3.703652,8.9948 1.28651,2.18751 6.18311,7.08899 8.34988,8.35815 11.76839,6.89312 25.97754,0.13583 30.93764,-14.71228 1.72587,-5.16625 1.82056,-6.40887 1.82056,-23.89777 V 86.031958 Z M 85.630949,104.74503 a 1.8637582,2.7425365 65.7485 0 1 1.794206,0.91105 1.8637582,2.7425365 65.7485 0 1 -1.732711,2.82619 1.8637582,2.7425365 65.7485 0 1 -3.267501,-0.57103 1.8637582,2.7425365 65.7485 0 1 1.732711,-2.82618 1.8637582,2.7425365 65.7485 0 1 1.473295,-0.34003 z" /></g></svg>
